<svg width="25" height="24" xmlns="http://www.w3.org/2000/svg" xmlns:xlink="http://www.w3.org/1999/xlink" xmlns:svgjs="http://svgjs.com/svgjs" fill="#bb341b"><svg xmlns="http://www.w3.org/2000/svg" width="25" height="24"><path paint-order="stroke fill markers" fill-rule="evenodd" d="M12.913 23.842c-6.187 0-11.22-5.034-11.22-11.221s5.033-11.22 11.22-11.22 11.22 5.033 11.22 11.22-5.033 11.22-11.22 11.22zm9.463-9.685c-.328-.103-2.967-.89-5.97-.41 1.253 3.445 1.764 6.25 1.862 6.834a9.601 9.601 0 0 0 4.108-6.424zm-5.72 7.301c-.142-.84-.698-3.771-2.044-7.268l-.063.021c-5.406 1.884-7.346 5.633-7.519 5.986a9.537 9.537 0 0 0 5.883 2.023 9.531 9.531 0 0 0 3.744-.762zM5.794 19.044c.217-.372 2.847-4.727 7.79-6.325.125-.04.25-.078.378-.114-.241-.544-.503-1.09-.777-1.626-4.787 1.432-9.431 1.373-9.85 1.364a9.546 9.546 0 0 0 2.459 6.701zM3.53 10.673c.429.005 4.377.023 8.86-1.168a61.17 61.17 0 0 0-3.553-5.543 9.62 9.62 0 0 0-5.307 6.71zm7.136-7.355a51.175 51.175 0 0 1 3.576 5.61c3.408-1.277 4.85-3.216 5.023-3.461a9.578 9.578 0 0 0-8.6-2.149zm9.665 3.257c-.202.273-1.809 2.332-5.352 3.779a29.623 29.623 0 0 1 .842 1.883c3.19-.401 6.358.241 6.674.308a9.539 9.539 0 0 0-2.164-5.97z"/></svg></svg>