<svg width="26" height="19" xmlns="http://www.w3.org/2000/svg" xmlns:xlink="http://www.w3.org/1999/xlink" xmlns:svgjs="http://svgjs.com/svgjs" fill="#bb341b"><svg xmlns="http://www.w3.org/2000/svg" width="26" height="19"><path paint-order="stroke fill markers" fill-rule="evenodd" d="M25.786 9.446c-.868.148-2.127-.006-2.794-.284 1.386-.115 2.325-.745 2.686-1.6-.5.308-2.05.643-2.906.324a10.387 10.387 0 0 0-.137-.566c-.651-2.399-2.886-4.331-5.226-4.097.188-.077.38-.148.573-.213.257-.092 1.769-.339 1.531-.872-.201-.47-2.049.353-2.396.462.459-.172 1.218-.47 1.3-.998a3.663 3.663 0 0 0-1.928.914c.193-.208.339-.46.37-.733-1.877 1.2-2.973 3.618-3.86 5.966-.696-.676-1.315-1.209-1.868-1.505-1.553-.833-3.411-1.703-6.326-2.787-.09.966.477 2.25 2.108 3.104-.353-.048-1 .059-1.516.182.21 1.107.898 2.018 2.761 2.459-.851.056-1.292.25-1.69.668.388.77 1.335 1.675 3.036 1.489-1.893.817-.772 2.329.768 2.103-2.626 2.717-6.768 2.516-9.146.245 6.209 8.47 19.707 5.008 21.717-3.15 1.509.013 2.393-.522 2.943-1.111z"/></svg></svg>